<svg version="1.1" id="Layer_1" xmlns="http://www.w3.org/2000/svg" x="0" y="0" viewBox="0 0 166.4 108.8" style="enable-background:new 0 0 166.4 108.8" xml:space="preserve"><style>.st0{fill:#f05c7d}.st1{fill:#2b39d0}</style><path class="st0" d="M166.2 47.7c-.2-4.7-1.6-12-3.6-16.1-3-6.3-4-9.2-9.5-13.8-5.5-4.6-13-8.6-20.5-10.9-9.2-2.9-19.3-4.7-28.9-5.7-3.9-.4-7.8-.8-11.5-1S85 0 81.6.1c-4.8.1-10.5.4-14.8.7-4.3.4-7.6.9-11.4 1.3-3.8.4-7.7 1.1-10.9 2-3.2.9-5.7 1.4-8.4 2.4-3.3 1.3-6.7 2.7-9.8 4.3-1.9.9-3.7 2-5.5 3.2-8 5.4-12.4 12.1-16.5 20.8-4 8.7-5.4 17.8-3.2 27.2 2.2 9.4 7 16.8 14.1 23 9.1 8 19.4 12 31 14.3 2.9.6 5.9.8 8.6 1.2 2.7.4 4.1.6 6.8 1 1.5.2 3.8.4 5.6.7 3.1.4 6.5.8 9.7 1 2 .1 4 .1 6.1.1 4.1 0 7.6-.1 11.9-.3 4.3-.2 9.5-.8 14-1.5 4.4-.7 7.8-1.8 12.4-2.4 2.3-.3 3.5-1 5.1-1.5 1.5-.5 3.3-.8 6.7-.6 1.9.1 18.2 8.5 22 11.2.3.2 1.1.6 1.5.4.4-.1 1.2.1 1.7-.4.6-.5.8-1.1.6-2.2-.6-3.5-1.7-7.3-2.4-11s-1.5-7.7-2.2-11.4c2-2.6 5.1-5.5 6.7-8.2 5.1-9.1 5.7-17.2 5.2-27.7zm-8.4 17.6c-1.2 5.1-1.8 8.1-4.4 12.4-1.1 1.9-3 3.6-4.7 5.2-.2.2 0 1.1.1 1.3 0 .2.1.2.1.3.3 2.5 3.5 15.5 2.1 15.5-2.2-.1-7.9-3.6-10.8-4.5-1-.3-2.5-1.3-3.4-1.9-1-.6-2.1-1.9-3.3-2-1.2-.1-2 .6-3.3.9-1.5.4-3.1.8-4.7 1.2-3.3.8-6.7 1.6-10 2.1-3.4.6-6.9 1-10.2 1.3-3.4.3-6.4.5-9.8.6-3.4.1-6.9.1-10.4.1-1.8 0-3.6.1-5.3 0-3.7-.2-7.4-.6-11-.9-.9-.1-1.9-.2-2.7-.2-3.1-.3-4.5-.5-7.9-.9-4.5-.6-9.5-1-14.4-2.6-8.4-2.8-17.1-7.2-23.7-13.3-6.7-6.1-9.8-12.7-11.5-21.6-2.1-11.2.6-21.2 6.7-30.5 4.1-6.2 7.6-10.4 14.3-13.6 4.5-2.2 9.3-3.6 14.4-4.9 3.4-.9 7.1-1.6 10.9-2.1 3.8-.5 7.8-.9 11.9-1.1 6.1-.3 13-.2 19.1-.4 3.9-.1 6.4.1 10.4.4 4 .4 8.1.9 12.6 1.5s10 1.5 14.8 2.9c6.2 1.8 12.3 3.9 17.9 7.4 5.6 3.5 9 6.9 12.6 13 2.7 4.6 3.9 11.5 4.6 17.1.9 5.6.2 12.2-1 17.3z"/><path class="st0" d="M128.5 28.8c-5.3-1.1-10.7-.6-16-.6-1.8 0-3.3 1.4-3.3 3.2v40.3c0 1.9 1.5 3.4 3.4 3.4 2.9 0 5.8 0 8.7-.1 2-.1 4-.3 5.9-.7 7.8-1.8 13.6-6.1 16.3-13.8 1.6-4.5 1.8-9.2 1.2-13.9-1.1-9.5-6.9-15.9-16.2-17.8zm.7 24.5c-5.7 0-10.3-4.5-10.3-10.2 0-5.6 4.6-10.2 10.3-10.2 5.7 0 10.3 4.6 10.3 10.2 0 5.7-4.6 10.2-10.3 10.2zM96.4 32c-3.7-2.5-8-3.8-12.4-3.9-3.4-.1-9.6 0-12.8 0-1.1 0-2 .9-2 2v42.6c0 1.3 1 2.3 2.3 2.3 3.3 0 6.5.1 9.8-.1 2.1-.1 4.2-.3 6.3-.8 8.3-2 14.1-6.8 16.4-15.3 1.4-5.3 1.4-10.6 0-15.9-1.2-4.5-3.6-8.2-7.6-10.9zM82.8 68.2c-5.1 0-9.5-3.8-10.2-8.8-.8-6.3 4.1-11.6 10.3-11.6 5.7 0 10.3 4.6 10.2 10.3-.1 5.6-4.6 10.1-10.3 10.1zM50.3 28.1c-7.4-2.7-15.7 0-20.8 6.6-3.7 4.7-5.5 10.1-5.7 16.1-.2 7.4 2 14 7.2 19.4 7.1 7.4 18.1 7.8 25.7 1 5.8-5.2 8.2-12 8.3-18.3 0-5.3-.7-9.1-2.4-12.7-2.4-5.6-6.4-9.9-12.3-12.1zm-1 26c-6.1 0-11-4.8-11.1-10.9-.1-6 4.9-11 11-11s11.1 4.9 11.1 10.9c-.1 6-4.9 10.9-11 11z"/><path class="st1" d="M158.9 48c.8 5.6.1 12.1-1.2 17.3-1.2 5.1-1.8 8.1-4.4 12.4-1.1 1.9-3 3.6-4.7 5.2-.2.2 0 1.1.1 1.3 0 .2.1.2.1.3.3 2.5 3.5 15.5 2.1 15.5-2.2-.1-7.9-3.6-10.8-4.5-1-.3-2.5-1.3-3.4-1.9-1-.6-2.1-1.9-3.3-2-1.2-.1-2 .6-3.3.9-1.5.4-3.1.8-4.7 1.2-3.3.8-6.7 1.6-10 2.1-3.4.6-6.9 1-10.2 1.3s-6.4.5-9.8.6c-3.4.1-6.9.1-10.4.1-1.8 0-3.6.1-5.3 0-3.7-.2-7.4-.6-11-.9-.9-.1-1.9-.2-2.7-.2-3.1-.3-4.5-.5-7.9-.9-4.5-.6-9.5-1-14.4-2.6C35.3 90.4 26.6 86 20 79.9c-6.7-6.1-9.8-12.7-11.5-21.6-2.1-11.2.6-21.2 6.7-30.5 4.1-6.2 7.6-10.4 14.3-13.6 4.5-2.2 9.3-3.6 14.4-4.9 3.4-.9 7.1-1.6 10.9-2.1 3.8-.5 7.8-.9 11.9-1.1 6.1-.3 13-.2 19.1-.4 3.9-.1 6.4.1 10.4.4 4 .4 8.1.9 12.6 1.5s10 1.5 14.8 2.9c6.2 1.8 12.3 3.9 17.9 7.4 5.6 3.5 9 6.9 12.6 13 2.9 4.6 4.1 11.5 4.8 17.1zm-15.4 12.5c1.6-4.5 1.8-9.2 1.2-13.9-1.1-9.4-6.9-15.8-16.2-17.8-5.3-1.1-10.7-.6-16-.6-1.8 0-3.3 1.4-3.3 3.2v40.3c0 1.9 1.5 3.4 3.4 3.4 2.9 0 5.8 0 8.7-.1 2-.1 4-.3 5.9-.7 7.8-1.8 13.6-6.1 16.3-13.8zM104 59c1.4-5.3 1.4-10.6 0-15.9-1.2-4.6-3.6-8.3-7.6-11-3.7-2.5-8-3.8-12.4-3.9-3.4-.1-9.6 0-12.8 0-1.1 0-2 .9-2 2v42.6c0 1.3 1 2.3 2.3 2.3 3.3 0 6.5.1 9.8-.1 2.1-.1 4.2-.3 6.3-.8 8.2-1.9 14-6.8 16.4-15.2zm-38.9-6c0-5.3-.7-9.1-2.4-12.7-2.6-5.6-6.5-9.9-12.4-12.1-7.4-2.7-15.7 0-20.8 6.6-3.7 4.7-5.5 10.1-5.7 16.1-.2 7.4 2 14 7.2 19.4 7.1 7.4 18.1 7.8 25.7 1 5.8-5.3 8.2-12 8.4-18.3z"/><path class="st1" d="M129.2 32.9c5.7 0 10.3 4.6 10.3 10.2 0 5.7-4.6 10.2-10.3 10.2-5.7 0-10.3-4.5-10.3-10.2 0-5.6 4.6-10.2 10.3-10.2zM82.8 47.8c5.7 0 10.3 4.6 10.2 10.3 0 5.6-4.6 10.1-10.3 10.1-5.1 0-9.5-3.8-10.2-8.8-.8-6.3 4.2-11.6 10.3-11.6zM60.2 43.1c0 6.1-4.9 10.9-11 11-6.1 0-11-4.8-11.1-10.9-.1-6 4.9-11 11-11s11.1 4.9 11.1 10.9z"/></svg>
