<svg viewBox="0 0 79 79" xmlns="http://www.w3.org/2000/svg">
<path d="M34.6262 70.613H26.664C26.4701 73.4237 26.2856 76.0874 26.0846 79H17.6163V61.9369C14.4806 61.7283 11.974 61.56 8.89032 61.3539C8.72242 58.7802 8.54979 56.1212 8.35351 53.0782C5.56781 52.8649 2.91453 52.6635 0.0247803 52.4431V17.5348C2.68279 17.3618 5.33133 17.1887 8.31095 16.9944C8.47648 14.2928 8.63256 11.7688 8.82174 8.69273C11.4466 8.52209 14.1023 8.35146 17.1268 8.15476C17.2971 5.48628 17.4603 2.96709 17.6494 0H61.3812C61.5326 2.45757 61.6886 4.96727 61.8849 8.1358C64.446 8.28037 67.0945 8.4273 70.1758 8.60267C70.3744 11.3968 70.5613 14.0558 70.7741 17.0347C73.5196 17.1603 76.0404 17.2741 78.9728 17.4091V52.4668C76.3644 52.6422 73.7111 52.8199 70.7836 53.0142C70.6109 55.7799 70.4525 58.2967 70.2657 61.2591C67.5533 61.4581 64.9047 61.6501 61.8092 61.8776V78.8744H53.017C52.8467 76.4216 52.6717 73.9119 52.4636 70.9187H44.265C44.1278 73.3857 43.9859 75.912 43.8228 78.8554H35.4751C35.2032 76.2201 34.9147 73.4213 34.6262 70.6154V70.613ZM34.7468 17.8665H17.9238V43.4423H34.7468V17.8665ZM44.3454 17.6295V43.4826H61.0383V17.6319H44.3454V17.6295ZM43.6312 53.0664H35.5815V61.1524H43.6312V53.0664Z" fill="#F05C7C"/>
</svg>

