<svg xmlns="http://www.w3.org/2000/svg" viewBox="0 0 200 200" xml:space="preserve"><path fill="#F05C7D" d="M175.889 158.991h-16.998v16.797h-33.593v16.797H74.501v-16.797H40.908v-16.797H24.111v-33.593H7.314V74.602h16.797V41.009h16.797V24.212h33.593V7.415h50.796v16.797h33.593v16.797h16.998v33.593h16.797v50.796h-16.797v33.593zM74.501 91.4V58.211h-16.39V91.4h16.39zm0 33.593v-16.392h-16.39v16.392h16.39zm50.39 16.797v-16.392H74.907v16.392h49.984zm16.797-50.39V58.211h-16.39V91.4h16.39zm0 33.593v-16.392h-16.39v16.392h16.39z"/></svg>