<svg viewBox="0 0 73 73" fill="none" xmlns="http://www.w3.org/2000/svg"><g clip-path="url(#a)" fill="#FF6E8D"><path d="M13.088 6.366V.01H59.41c.11 1.991.219 3.978.341 6.225 2.075.114 3.965.216 6.537.358v6.431l.088-.08h-6.698l-.47-6.369c-2.202 0-3.973.011-5.742 0-13.487-.093-26.974-.189-40.461-.284l.081.074h.002ZM46.408 66.224H39.74V53.148H13.1v-6.905l-.09.096h33.296v19.975l.102-.09ZM66.288 13.026h6.384v39.89h-6.383l.082.084.006-40.054-.088.08ZM6.445 39.589H0V13.032h6.428l-.083-.082.005 26.73.094-.09.001-.002Z"/><path d="M52.975 66.238v6.424h-6.568v-6.438l-.1.09 6.75.007-.082-.081v-.002ZM59.635 59.577v6.66h-6.66l.083.081v-6.66h6.659l-.082-.082v.001Z"/><path d="M66.291 52.916v6.663h-6.656l.082.082v-6.66h6.654l-.081-.084h.001ZM13.1 46.243H6.446v-6.654l-.093.09h6.658v6.659l.09-.096v.001ZM6.428 13.032V6.366h6.66l-.082-.074v6.966l-6.66-.308.082.082ZM59.509 19.967v6.142H13.308v-6.142h46.2ZM19.974 33.169h39.379v6.192H19.974v-6.192Z"/></g><defs><clipPath id="a"><path fill="#fff" d="M0 0h72.672v72.672H0z"/></clipPath></defs></svg>
