<svg xmlns="http://www.w3.org/2000/svg" viewBox="0 0 80.7 45.1" style="enable-background:new 0 0 80.7 45.1" xml:space="preserve">
  <path d="M2.7 27.4c1.6.5 2.3-.9 3-3.4.3-1.1.6-2.1 1-3.2 2.1-5.7 4.4-11.4 7-16.8.7-1.5.6-2.5-.4-3-1.5-.7-2.4.7-3.2 2.4l-2.6 6C7 10.5 6.9 11 6.3 11c-.6-.1-.8-.7-1.1-1.9-.8-3-1.8-6.3-1.9-6.6-.5-.9-1.3-1.3-2.2-1.1C.4 1.6-.1 2.5 0 3.5c.4 2.1 2.5 8.7 3 11.1.1.8.3 1.6.6 2.2.4.8.4 1.5 0 2.6-.6 1.5-1.1 3-1.5 4.5-.7 2.1-.6 3.1.6 3.5zm18.4-9c4.8 0 8.5-7 8.5-12.8 0-2.4-.6-5.6-2.9-5.6C21.9 0 17 8 17 13.8c0 2.6 1.7 4.6 4.1 4.6zm.3-3.5c-.7 0-1-.6-1-1.6 0-2.7 3-9 5.1-9 .6 0 .8.7.8 1.3 0 3-2.5 9.4-4.9 9.3zm18.5 2.9c1.3-.6 2.7-2.4 3.6-4.4 1.4-3.1 2.4-6.4 3.4-9.7.5-1.4.1-2.4-.9-2.7-1.2-.3-1.9.2-2.3 1.6-.4 1.4-.8 2.7-1.3 4.1-1.4 4.6-2.7 7.3-3.8 7.3-1.4 0-.9-5.2-.1-8 .3-1.6.6-2.9-1-3.3-1-.3-1.8.4-2.2 1.8-.9 3.4-1.5 8.7-.2 11.7 1 1.8 3 2.5 4.8 1.6zm40.7 23.4c-.2-.3-.6-.4-.9-.2-.9.5-1.9 1.1-2.8 1.6 2.2-5.5 3.6-11.4 2.4-17.2-1.2-5.9-4.9-10.8-10.5-13-3.2-1.3-6.6-1.7-10-1.4-.9.1-.9 1.4 0 1.3 5.5-.4 11.4 1 15.3 5.2 3.9 4.3 4.9 10.6 4.1 16.2-.5 3-1.4 6-2.6 8.8-.3-.9-.6-1.8-1-2.6s-1.5-.1-1.2.7c.6 1.3 1 2.7 1.4 4.1.1.5 1 .7 1.2.2v-.1c1.5-.9 2.9-1.7 4.4-2.6.3-.3.4-.7.2-1z" style="fill:#e9faa2"/>
</svg>
