<svg width="233" height="147" viewBox="0 0 233 147" fill="none"><g clip-path="url(#a)"><path d="M232.304 60.416c-14.113-.73-42.769-3.677-42.985-4.42 8.964-6.192 26.147-19.82 25.774-20.443-14.449 2.585-28.898 5.168-45.284 8.1l23.469-40.999c-.452-.35-32.25 21.44-49.691 34.138l-4.968-27.776-23.557 24.369L89.918 1.724l-3.111 35.229c-18.555-9.469-53.975-25.73-54.55-25.116 9.795 10.585 19.589 21.17 29.383 31.757-.3.642-23.691-.402-35.087-1.566-.133.453 18.918 17.034 18.564 17.695L.675 62.677c-.052.432 39.868 12.776 39.888 13.456L15.59 85.772c.072.547 21.668 3.52 32.394 4.458.182.766-23.378 19.788-35.339 28.532.23.501 36.097-9.292 55.419-15.183l-6.536 21.694 31.87-12.998 3.575 32.705c9.431-11.115 17.21-20.283 25.37-29.897l23.263 18.809 5.479-22.116c16.507 10.158 47.126 27.594 47.479 27.109a677135.95 677135.95 0 0 0-23.046-33.893c.493-.585 40.416 7.851 40.604 7.474L189.473 89.23l32.894-3.842c.081-.664-25.085-12.315-25.076-13.079 11.824-3.374 35.168-11.304 35.014-11.893h-.001Z" fill="#FF6E8D"/><path d="m96.476 146.592-3.646-33.369-32.345 13.193 6.58-21.84c-8.827 2.67-21.578 6.317-33.696 9.633-20.924 5.725-21.025 5.5-21.331 4.829l-.226-.494.439-.32c10.868-7.947 30.237-23.552 34.371-27.45-5.823-.55-13.46-1.51-18.921-2.26-12.652-1.741-12.69-2.028-12.772-2.657l-.068-.52 23.978-9.253c-3.605-1.343-13.74-4.616-21.476-7.114C5.736 65.215-.047 63.09.013 62.597l.066-.549 43.758-2.91c-1.766-1.844-6.564-6.207-10.234-9.547-5.242-4.77-7.806-7.353-7.69-7.751l.155-.532.552.057c10.301 1.05 28.887 1.916 33.665 1.747L31.347 11.833l.425-.453c.428-.456.779-.807 21.298 8.63C65.14 25.56 77.724 31.596 86.23 35.91L89.4 0l25.711 32.373 23.936-24.76 5.01 28.014c7.936-5.756 19.456-13.856 30.37-21.348 18.526-12.713 18.761-12.54 19.261-12.153l.457.356-23.048 40.263 44.332-7.93.236.395c.361.604.581.97-9.542 8.999-4.327 3.432-10.441 8.127-15.268 11.528 5.594 1.002 28.852 3.36 41.484 4.014l.489.025.123.474c.19.737.268 1.04-13.448 5.699-5.93 2.014-14.271 4.738-20.683 6.611 2.191 1.232 7.402 3.797 11.755 5.94 12.546 6.175 12.537 6.25 12.45 6.97l-.062.52-31.92 3.728 25.902 22.584-.228.461c-.207.415-5.94-.492-17.198-2.722-8.223-1.628-19.051-3.771-22.684-4.294l22.543 33.151-.276.379c-.455.619-.616.852-18.551-9.376-10.479-5.977-21.5-12.46-29.039-17.079l-5.514 22.247-23.571-19.058-25.951 30.581Zm-2.514-35.27 3.503 32.044 24.788-29.211 22.954 18.56 5.449-21.984.776.478c14.298 8.797 38.228 22.502 45.274 26.132l-22.025-32.392.325-.386c.429-.506.525-.631 24.772 4.17 5.547 1.097 11.23 2.222 14.208 2.757l-26.088-22.747 32.536-3.8c-2.248-1.212-6.692-3.399-10.447-5.25-13.374-6.582-13.373-6.721-13.364-7.394l.007-.496.476-.136c9.819-2.804 26.511-8.402 32.536-10.737-7.541-.467-17.146-1.342-24.111-2.057-16.565-1.704-16.697-2.163-16.853-2.694l-.135-.462.396-.272c7.562-5.223 20.363-15.286 24.354-18.898l-44.771 8.01 22.979-40.139c-7.235 4.58-32.386 21.893-47.522 32.913l-.861.627-4.926-27.542-23.181 23.978-24.577-30.95-3.05 34.551-.88-.45c-15.997-8.162-43.946-21.08-52.045-24.31L62.435 43.47l-.19.406c-.231.493-.417.885-14.017.276-5.797-.257-13.817-.722-19.974-1.29 1.42 1.354 3.94 3.646 6.246 5.744 11.65 10.599 11.583 10.725 11.204 11.43l-.175.326-41.733 2.776c3.182 1.077 8.64 2.84 13.975 4.562 23.43 7.568 23.433 7.664 23.456 8.413l.013.472-23.482 9.064c5.402 1.002 21.199 3.121 30.283 3.917l.479.042.11.469c.12.505.235.982-13.345 11.946-7.099 5.733-14.458 11.475-19.903 15.542 8.726-2.091 36.268-9.68 52.484-14.624l1.192-.363-6.491 21.552 31.395-12.805v-.004Z" fill="#2B39D0"/><path d="M79.484 62.318V59.9h-9.62V69h2.86v-2.626h5.98v-2.418h-5.98v-1.638h6.76Zm8.961 6.812c3.991 0 5.72-1.612 5.72-4.693 0-3.068-1.729-4.667-5.72-4.667-4.004 0-5.72 1.586-5.72 4.667 0 3.094 1.716 4.693 5.72 4.693Zm0-2.418c-2.21 0-2.86-.858-2.86-2.275 0-1.404.637-2.249 2.86-2.249 2.236 0 2.86.858 2.86 2.249 0 1.404-.637 2.275-2.86 2.275Zm19.965-3.406c0-2.028-1.417-3.406-3.484-3.406h-7.15V69h2.86v-2.275h2.899L104.887 69h3.38l-1.638-2.652c1.105-.533 1.781-1.638 1.781-3.042Zm-7.774-.988h3.64c.533 0 1.274 0 1.274.988 0 1.001-.741 1.001-1.274 1.001h-3.64v-1.989Zm25.286-2.418h-3.653l-3.302 5.811-3.315-5.811h-3.666V69h2.86v-5.317L117.979 69h1.95l3.133-5.304V69h2.86v-9.1Zm15.218 4.537V59.9h-2.86v4.537c0 1.105-.351 2.275-2.86 2.275s-2.86-1.157-2.86-2.275V59.9h-2.86v4.537c0 3.172 1.716 4.693 5.72 4.693 3.991 0 5.72-1.534 5.72-4.693Zm6.607 2.145V59.9h-2.86V69h9.36v-2.418h-6.5ZM167.11 69h3.146l-4.225-9.1h-4.095l-4.238 9.1h3.159l.78-1.781h4.693l.78 1.781Zm-4.563-3.835 1.443-3.263 1.43 3.263h-2.873ZM66.878 89h3.146L65.8 79.9h-4.095L57.466 89h3.16l.78-1.781h4.692l.78 1.781Zm-4.563-3.835 1.443-3.263 1.43 3.263h-2.873Zm13.976 1.417V79.9h-2.86V89h9.36v-2.418h-6.5Zm13.017 0V79.9h-2.86V89h9.36v-2.418h-6.5Zm10.455-3.12v2.236h10.4v-2.236h-10.4Zm14.353 2.366c0 2.665 2.158 3.302 5.889 3.302 3.549 0 5.733-.559 5.733-3.029 0-2.353-2.223-2.574-5.811-2.743-2.301-.104-2.743-.169-2.743-.702 0-.507.442-.663 2.379-.663 2.041 0 2.925.182 2.925.923h2.86c0-2.288-2.028-3.146-5.525-3.146-3.497 0-5.499.741-5.499 2.743 0 2.093 1.573 2.743 5.603 2.899 2.548.104 2.951.182 2.951.767 0 .52-.52.728-2.743.728-2.548 0-3.159-.377-3.159-1.079h-2.86Zm25.796-5.928h-11.18v2.418h4.16V89h2.86v-6.682h4.16V79.9Zm10.487 9.1h3.146l-4.225-9.1h-4.095l-4.238 9.1h3.159l.78-1.781h4.693l.78 1.781Zm-4.563-3.835 1.443-3.263 1.43 3.263h-2.873Zm21.75-1.859c0-2.028-1.417-3.406-3.484-3.406h-7.15V89h2.86v-2.275h2.899L164.063 89h3.38l-1.638-2.652c1.105-.533 1.781-1.638 1.781-3.042Zm-7.774-.988h3.64c.533 0 1.274 0 1.274.988 0 1.001-.741 1.001-1.274 1.001h-3.64v-1.989Zm11.093 3.51c0 2.665 2.158 3.302 5.889 3.302 3.549 0 5.733-.559 5.733-3.029 0-2.353-2.223-2.574-5.811-2.743-2.301-.104-2.743-.169-2.743-.702 0-.507.442-.663 2.379-.663 2.041 0 2.925.182 2.925.923h2.86c0-2.288-2.028-3.146-5.525-3.146-3.497 0-5.499.741-5.499 2.743 0 2.093 1.573 2.743 5.603 2.899 2.548.104 2.951.182 2.951.767 0 .52-.52.728-2.743.728-2.548 0-3.159-.377-3.159-1.079h-2.86Z" fill="#2B39D0"/></g><defs><clipPath id="a"><path fill="#fff" d="M0 0h232.992v146.592H0z"/></clipPath></defs></svg>